<svg width="40" height="40" viewBox="0 0 40 40" fill="none" xmlns="http://www.w3.org/2000/svg">
<rect width="40" height="40" rx="20" fill="white"/>
<g clip-path="url(#clip0_1_38)">
<path d="M20 10C16.4857 10 13.5547 12.8309 13.5547 16.4453C13.5547 17.8204 13.9679 19.0466 14.7609 20.1955L19.5068 27.601C19.737 27.961 20.2635 27.9603 20.4932 27.601L25.2597 20.1704C26.0356 19.0734 26.4453 17.7854 26.4453 16.4453C26.4453 12.8914 23.5539 10 20 10ZM20 19.375C18.3846 19.375 17.0703 18.0607 17.0703 16.4453C17.0703 14.83 18.3846 13.5156 20 13.5156C21.6154 13.5156 22.9297 14.83 22.9297 16.4453C22.9297 18.0607 21.6154 19.375 20 19.375Z" fill="black"/>
<path d="M24.5806 23.4646L21.6302 28.0774C20.8665 29.2681 19.1293 29.2642 18.3692 28.0786L15.414 23.4659C12.8138 24.067 11.2109 25.1683 11.2109 26.4844C11.2109 28.768 15.7394 30 20 30C24.2606 30 28.7891 28.768 28.7891 26.4844C28.7891 25.1674 27.1839 24.0655 24.5806 23.4646Z" fill="black"/>
</g>
<defs>
<clipPath id="clip0_1_38">
<rect width="20" height="20" fill="white" transform="translate(10 10)"/>
</clipPath>
</defs>
</svg>
