<svg width="576" height="342" viewBox="0 0 576 342" fill="none" xmlns="http://www.w3.org/2000/svg">
<path d="M1 341.25V215.954H32.5459V341.25H1ZM1 81.5987V1H27.0038L83.1601 81.5987H43.8521L32.5459 65.3379V81.5987H1ZM176.77 215.954L219.268 276.95V215.954H250.388V341.25H224.384L137.268 215.954H176.77ZM219.268 81.5987V1H250.388V81.5987H219.268Z" fill="white" stroke="white" stroke-width="1.5001"/>
<path d="M348 341.25V215.954H531.651C529.474 217.278 527.23 218.537 524.917 219.732C506.727 229.129 484.986 233.828 459.692 233.828H379.546V341.25H348ZM348 81.5987V1H459.692C532.244 1 567.868 42.1358 574.649 119.809C563.591 119.809 552.532 119.809 541.474 119.809C530.008 72.5614 517.12 32.6508 458.839 32.1086H379.546V81.5987H348Z" fill="white" stroke="white" stroke-width="1.5001"/>
</svg>
