<svg width="40" height="40" viewBox="0 0 40 40" fill="none" xmlns="http://www.w3.org/2000/svg">
<rect width="40" height="40" rx="20" fill="white"/>
<g clip-path="url(#clip0_1_9)">
<path d="M25.2053 23.2304C24.5519 22.5853 23.7362 22.5853 23.087 23.2304C22.5917 23.7215 22.0965 24.2126 21.6095 24.712C21.4764 24.8493 21.364 24.8785 21.2017 24.7869C20.8812 24.6121 20.54 24.4706 20.232 24.2792C18.7962 23.3761 17.5934 22.2149 16.528 20.9081C15.9994 20.2589 15.5291 19.5638 15.2004 18.7814C15.1338 18.6233 15.1463 18.5192 15.2753 18.3902C15.7705 17.9116 16.2533 17.4205 16.7402 16.9294C17.4186 16.2469 17.4186 15.4478 16.7361 14.7611C16.349 14.3699 15.962 13.987 15.5749 13.5958C15.1754 13.1963 14.78 12.7926 14.3763 12.3972C13.7229 11.7604 12.9072 11.7604 12.258 12.4014C11.7585 12.8925 11.2799 13.396 10.7722 13.8788C10.3019 14.3241 10.0647 14.8693 10.0147 15.5061C9.93566 16.5424 10.1895 17.5204 10.5475 18.4734C11.2799 20.4461 12.3953 22.1983 13.7479 23.8047C15.5749 25.9772 17.7557 27.696 20.3069 28.9362C21.4556 29.4939 22.6458 29.9226 23.9402 29.9933C24.8308 30.0433 25.6049 29.8185 26.225 29.1235C26.6495 28.6491 27.1281 28.2162 27.5776 27.7626C28.2435 27.0884 28.2476 26.2727 27.5859 25.6068C26.7952 24.8119 26.0003 24.0211 25.2053 23.2304Z" fill="black"/>
<path d="M24.4105 19.9134L25.9462 19.6512C25.7048 18.2404 25.0389 16.9627 24.0276 15.9472C22.958 14.8776 21.6054 14.2034 20.1155 13.9953L19.899 15.5394C21.0519 15.7017 22.1006 16.2219 22.9288 17.0501C23.7113 17.8325 24.2232 18.823 24.4105 19.9134Z" fill="black"/>
<path d="M26.8118 13.2379C25.0389 11.465 22.7957 10.3454 20.3194 10L20.103 11.544C22.2421 11.8437 24.1815 12.8134 25.7131 14.3408C27.1656 15.7932 28.1186 17.6286 28.464 19.6471L29.9998 19.3849C29.5961 17.0459 28.4932 14.9234 26.8118 13.2379Z" fill="black"/>
</g>
<defs>
<clipPath id="clip0_1_9">
<rect width="20" height="20" fill="white" transform="translate(10 10)"/>
</clipPath>
</defs>
</svg>
