<svg width="52" height="52" viewBox="0 0 52 52" fill="none" xmlns="http://www.w3.org/2000/svg">
<path d="M22.3833 30.65L16.7646 25.0313C16.291 24.5577 15.7097 24.3209 15.0208 24.3209C14.3319 24.3209 13.7292 24.5792 13.2125 25.0959C12.7389 25.5695 12.5021 26.1722 12.5021 26.9042C12.5021 27.6361 12.7389 28.2389 13.2125 28.7125L20.575 36.075C21.0486 36.5486 21.6514 36.7854 22.3833 36.7854C23.1153 36.7854 23.718 36.5486 24.1917 36.075L38.8521 21.4146C39.3257 20.941 39.5625 20.3597 39.5625 19.6709C39.5625 18.982 39.3042 18.3792 38.7875 17.8625C38.3139 17.3889 37.7111 17.1521 36.9792 17.1521C36.2472 17.1521 35.6444 17.3889 35.1708 17.8625L22.3833 30.65ZM26 51.8334C22.4264 51.8334 19.068 51.1548 15.925 49.7977C12.7819 48.4423 10.0479 46.6021 7.72291 44.2771C5.39791 41.9521 3.55771 39.2181 2.20232 36.075C0.845212 32.932 0.166656 29.5736 0.166656 26C0.166656 22.4264 0.845212 19.0681 2.20232 15.925C3.55771 12.782 5.39791 10.0479 7.72291 7.72294C10.0479 5.39794 12.7819 3.55688 15.925 2.19977C19.068 0.844381 22.4264 0.166687 26 0.166687C29.5736 0.166687 32.9319 0.844381 36.075 2.19977C39.218 3.55688 41.9521 5.39794 44.2771 7.72294C46.6021 10.0479 48.4423 12.782 49.7977 15.925C51.1548 19.0681 51.8333 22.4264 51.8333 26C51.8333 29.5736 51.1548 32.932 49.7977 36.075C48.4423 39.2181 46.6021 41.9521 44.2771 44.2771C41.9521 46.6021 39.218 48.4423 36.075 49.7977C32.9319 51.1548 29.5736 51.8334 26 51.8334Z" fill="#2D2D1F"/>
</svg>
